<svg width="588" height="354" viewBox="0 0 588 354" fill="none" xmlns="http://www.w3.org/2000/svg">
<path d="M14.4083 254.269V210.083L98.1452 90.6143H156.788V207.9H177.791V254.269H156.788V287H102.782V254.269H14.4083ZM106.873 150.894L69.2328 207.9H106.873V150.894ZM411.826 254.269V210.083L495.563 90.6143H554.206V207.9H575.209V254.269H554.206V287H500.2V254.269H411.826ZM504.291 150.894L466.651 207.9H504.291V150.894Z" fill="black"/>
<path d="M446.81 199.943C446.721 202.455 446.608 204.993 446.468 207.557C445.962 216.944 444.716 226.261 442.717 235.4C439.795 248.749 435.26 261.719 429.082 273.972C398.725 334.179 342.993 353.63 298.089 350.749C280.027 349.598 263.716 344.831 251.51 337.647L238.753 323.469L313.009 289.631H336.765C336.765 289.631 336.783 289.618 336.79 289.613C354.145 278.34 366.699 263.471 375.129 246.61C379.961 236.957 383.446 226.653 385.711 216.001C390.688 192.638 389.822 167.592 384.496 144.041C383.921 141.503 383.3 138.983 382.625 136.483C381.012 130.514 379.114 124.665 376.952 118.994C376.775 118.519 376.591 118.045 376.407 117.577C357.535 69.2259 319.6 34.0652 277.384 46.0783C276.873 46.224 276.367 46.3754 275.853 46.5339L246.552 82.9481L175.496 92.2335V69.0293C234.731 -6.6161 352.998 -26.9964 411.963 54.1611C412.052 54.2743 412.134 54.3959 412.216 54.5162C419.628 64.7763 426.085 76.6508 431.367 90.2273C431.626 90.8852 431.879 91.5501 432.126 92.2207C432.157 92.3028 432.19 92.3848 432.215 92.4669C432.341 92.7895 432.461 93.1191 432.583 93.4474C435.183 100.504 437.471 108.011 439.414 115.974C445.232 139.772 447.971 167.648 446.813 199.941L446.81 199.943Z" fill="white"/>
<path d="M306.786 351.343C303.678 351.343 300.763 351.239 298.068 351.066C280.433 349.943 263.84 345.274 251.349 337.921L251.274 337.86L238.229 323.361L313.008 289.317H336.667C353.152 278.59 365.99 264.18 374.845 246.47C379.533 237.105 383.083 226.832 385.4 215.935C390.17 193.55 389.75 168.713 384.187 144.11C383.593 141.493 382.964 138.954 382.318 136.566C380.714 130.628 378.809 124.755 376.655 119.108C376.478 118.634 376.294 118.16 376.112 117.693C366.496 93.0582 352.058 72.371 335.455 59.4411C317.269 45.2789 297.219 40.7643 277.47 46.3839C276.99 46.5197 276.517 46.6612 276.039 46.8097L246.719 83.2466L246.593 83.2635L175.18 92.5956V68.9217L175.248 68.8354C208.357 26.5511 260.399 0.869633 311.119 1.76662C352.395 2.5108 388.298 21.0518 412.217 53.9743C412.304 54.0846 412.39 54.2105 412.476 54.3351C420.049 64.8187 426.506 76.8573 431.661 90.1112C431.921 90.7705 432.174 91.4383 432.422 92.1103C432.454 92.1952 432.488 92.2843 432.517 92.3749C432.634 92.6734 432.754 93.0002 432.874 93.3285C435.509 100.482 437.811 108.072 439.719 115.899C445.75 140.567 448.242 168.846 447.128 199.954C447.041 202.451 446.925 205.014 446.786 207.574C446.277 217.006 445.014 226.392 443.029 235.468C440.064 249.015 435.467 262.017 429.367 274.115C415.275 302.06 395.029 322.984 369.188 336.3C345.933 348.285 323.561 351.343 306.789 351.343H306.786ZM251.711 337.4C264.114 344.69 280.588 349.317 298.109 350.435C300.807 350.608 303.565 350.697 306.361 350.697C348.255 350.7 400.111 330.731 428.8 273.83C434.876 261.779 439.455 248.828 442.41 235.334C444.387 226.29 445.647 216.94 446.153 207.54C446.292 204.985 446.406 202.424 446.494 199.932C447.606 168.885 445.12 140.662 439.103 116.05C437.2 108.246 434.906 100.678 432.283 93.5577C432.16 93.2224 432.043 92.8998 431.919 92.5829C431.887 92.4852 431.858 92.4088 431.829 92.3338C431.582 91.6604 431.331 90.9983 431.072 90.3418C425.936 77.1374 419.505 65.1456 411.959 54.7001C411.875 54.5784 411.798 54.4638 411.713 54.3549C387.906 21.588 352.18 3.14039 311.108 2.39904C260.65 1.48932 208.806 27.0591 175.81 69.1381V91.8726L246.384 82.6509L275.667 46.2608L275.759 46.2311C276.274 46.0726 276.781 45.9198 277.296 45.7727C297.248 40.0965 317.491 44.6493 335.842 58.9402C352.533 71.9395 367.045 92.7215 376.7 117.461C376.884 117.93 377.069 118.406 377.246 118.883C379.407 124.548 381.319 130.442 382.927 136.399C383.576 138.796 384.208 141.344 384.803 143.97C390.386 168.662 390.806 193.593 386.018 216.067C383.691 227.016 380.121 237.34 375.411 246.751C366.496 264.582 353.567 279.086 336.98 289.866L336.861 289.978L336.765 289.948H313.079L239.277 323.579L251.712 337.4H251.711Z" fill="black"/>
<g opacity="0.6">
<path opacity="0.6" d="M182.136 74.9346V91.3662L175.496 92.2334V69.0292C229.875 -0.412186 334.014 -23.2811 396.336 36.2355C333.477 -15.7303 234.63 7.90404 182.136 74.9346Z" fill="white"/>
</g>
<g opacity="0.6">
<path opacity="0.6" d="M341.904 294.842L337.844 289.614C355.198 278.341 367.753 263.473 376.183 246.611C381.015 236.958 384.5 226.654 386.764 216.002C391.742 192.639 390.875 167.593 385.55 144.042C384.975 141.504 384.354 138.984 383.678 136.484L384.115 135.118L389.497 130.326C406.864 204.679 390.793 265.1 341.905 294.843L341.904 294.842Z" fill="white"/>
</g>
<path d="M347.865 304.626L345.328 308.544C344.924 309.171 344.475 309.765 344.001 310.323H343.995C340.947 313.867 336.482 315.956 331.744 315.893C320.285 315.747 311.608 312.797 303.903 305.93C302.044 304.277 299.432 303.758 297.111 304.67L250.966 322.729C248.955 323.514 248.425 326.115 249.967 327.621L255.298 332.843C256.551 334.071 256.196 336.179 254.602 336.926L253.299 337.528L251.996 338.135C249.378 339.356 246.366 339.439 243.685 338.37C226.862 331.628 213.08 320.426 203.012 303.792C202.872 303.577 202.746 303.355 202.613 303.14L154.025 132.274C153.746 110.436 157.946 89.9032 169.88 71.624L183.098 67.0542L182.055 81.8205C181.815 85.2386 185.008 87.8645 188.311 86.9732L245.016 71.5674C247.059 71.017 248.741 69.5739 249.601 67.6371L259.897 44.4329L271.882 41.1859L278.979 50.4712C277.245 57.3458 276.259 64.5231 276.259 71.7202C276.259 83.8535 279.066 96.0633 285.872 107.007C286.902 108.665 288.022 110.298 289.243 111.894C298.749 119.818 307.281 129.806 314.263 141.433L314.268 141.439C320.511 151.825 325.526 163.523 328.897 176.226C336.588 205.177 334.312 233.813 324.438 256.655V256.668C323.521 273.808 333.09 289.037 346.466 297.885C348.706 299.366 349.319 302.378 347.865 304.626Z" fill="white"/>
<path d="M247.571 339.43C246.212 339.43 244.852 339.175 243.57 338.664C226.209 331.708 212.473 320.03 202.743 303.955C202.658 303.825 202.573 303.682 202.489 303.54L202.312 303.225L153.708 132.319V132.277C153.401 108.211 158.605 88.3145 169.615 71.45L169.674 71.3594L183.448 66.5986L182.371 81.8431C182.263 83.3683 182.877 84.7987 184.054 85.7678C185.232 86.7384 186.753 87.0666 188.227 86.6676L244.933 71.2618C246.891 70.7341 248.487 69.366 249.313 67.5083L259.671 44.1669L272.005 40.8251L279.324 50.4005L279.286 50.5491C277.487 57.6811 276.576 64.8046 276.576 71.7202C276.576 84.8171 279.794 96.6321 286.141 106.84C287.194 108.532 288.322 110.169 289.494 111.701C299.146 119.739 307.587 129.705 314.533 141.271C320.968 151.974 325.902 163.705 329.203 176.146C336.654 204.196 335.072 232.813 324.751 256.73C323.938 272.497 332.32 288.149 346.64 297.622C349.01 299.188 349.677 302.408 348.129 304.798L345.593 308.717C345.197 309.33 344.742 309.938 344.24 310.529L344.137 310.641C340.982 314.246 336.456 316.264 331.737 316.211C319.964 316.063 311.314 312.966 303.691 306.169C301.89 304.57 299.411 304.109 297.225 304.968L251.081 323.026C250.236 323.356 249.624 324.085 249.443 324.973C249.263 325.86 249.542 326.767 250.188 327.397L255.52 332.619C256.183 333.268 256.486 334.205 256.33 335.122C256.172 336.051 255.591 336.814 254.737 337.214L252.132 338.422C250.695 339.093 249.135 339.43 247.571 339.43ZM202.909 303.013L203.032 303.216C203.112 303.351 203.194 303.487 203.28 303.62C212.943 319.581 226.575 331.173 243.806 338.076C246.399 339.109 249.337 339.026 251.866 337.848L254.473 336.638C255.134 336.328 255.585 335.736 255.708 335.014C255.831 334.291 255.602 333.582 255.079 333.069L249.748 327.847C248.948 327.066 248.602 325.942 248.825 324.844C249.048 323.744 249.807 322.841 250.854 322.434L296.998 304.375C299.407 303.43 302.135 303.934 304.115 305.692C311.617 312.38 320.14 315.427 331.75 315.575C331.819 315.575 331.889 315.575 331.957 315.575C336.475 315.575 340.765 313.592 343.757 310.113L343.856 310.003C344.302 309.468 344.709 308.919 345.066 308.369L347.602 304.45C348.962 302.35 348.375 299.522 346.296 298.146C331.766 288.533 323.271 272.632 324.126 256.647L324.152 256.525C334.438 232.726 336.015 204.237 328.595 176.303C325.309 163.92 320.398 152.244 314.001 141.597C307.086 130.085 298.691 120.173 289.044 112.131C287.81 110.531 286.671 108.879 285.608 107.17C279.197 96.8599 275.946 84.9317 275.946 71.7146C275.946 64.7947 276.853 57.6698 278.638 50.5378L271.763 41.5424L260.129 44.6946L249.894 67.7616C248.992 69.7947 247.244 71.2915 245.101 71.8688L188.396 87.2746C186.72 87.7287 184.993 87.3552 183.656 86.2531C182.318 85.151 181.621 83.5268 181.743 81.795L182.752 67.5055L170.088 71.8843C159.196 88.6102 154.046 108.351 154.343 132.223L202.911 303.008L202.909 303.013Z" fill="black"/>
<g opacity="0.6">
<path opacity="0.6" d="M208.288 306.95C211.893 313.007 215.986 318.362 220.532 323.046C214.189 317.432 208.611 310.698 203.874 302.728L155.282 131.862C155.004 110.025 159.204 89.4916 171.138 71.2123L184.356 66.6425L183.939 72.5351L175.553 75.4341C163.619 93.7133 159.419 114.246 159.697 136.084L208.288 306.95Z" fill="white"/>
</g>
<g opacity="0.6">
<path opacity="0.6" d="M254.161 335.983C254.161 335.983 253.826 336.59 253.301 337.528L251.998 338.135C249.38 339.356 246.368 339.439 243.687 338.37C226.864 331.628 213.082 320.426 203.014 303.792L212.051 305.602C212.051 305.602 228.603 328.811 254.161 335.983Z" fill="white"/>
</g>
<g opacity="0.6">
<path opacity="0.6" d="M271.88 42.53L275.308 47.0177L264.309 49.9987L254.013 73.2029C253.154 75.1398 251.472 76.5829 249.429 77.1333L192.723 92.5391C189.783 93.337 186.923 91.3365 186.506 88.4687C187.088 88.5253 187.695 88.4814 188.308 88.3173L245.014 72.9115C247.057 72.3611 248.739 70.918 249.599 68.9812L259.894 45.7769L271.88 42.53Z" fill="white"/>
</g>
<g opacity="0.3">
<path opacity="0.3" d="M347.864 304.627L345.328 308.544C344.924 309.171 344.474 309.765 344.001 310.323H343.995C343.545 310.259 325.117 307.538 313.656 293.574C313.656 293.574 305.649 287.301 294.474 295.606C294.474 295.606 269.789 309.671 251.328 310.101L251.676 308.328C251.707 308.322 251.745 308.31 251.778 308.302C296.745 296.34 320.804 239.987 305.517 182.446C301.141 165.976 294.02 151.19 285.019 138.759L285.196 137.867C285.196 137.867 303.277 157.228 314.264 141.43L314.269 141.436C320.512 151.822 325.527 163.52 328.898 176.223C336.589 205.174 334.313 233.81 324.439 256.652V256.665C323.522 273.805 333.091 289.034 346.467 297.882C348.707 299.364 349.32 302.376 347.866 304.624L347.864 304.627Z" fill="black"/>
</g>
<path d="M251.783 308.296C296.751 296.33 320.811 239.983 305.523 182.44C290.235 124.898 241.388 87.9513 196.421 99.9173C151.453 111.883 127.393 168.231 142.681 225.773C157.969 283.315 206.816 320.262 251.783 308.296Z" fill="white"/>
<path d="M234.6 310.859C194.88 310.859 155.735 276.175 142.368 225.856C134.958 197.958 136.482 169.466 146.66 145.631C156.85 121.769 174.493 105.427 196.337 99.6145C241.402 87.6269 290.517 124.747 305.823 182.366C313.233 210.265 311.709 238.756 301.531 262.591C291.341 286.454 273.698 302.796 251.854 308.608C246.144 310.128 240.363 310.858 234.6 310.858V310.859ZM213.598 97.9974C207.883 97.9974 202.161 98.7203 196.5 100.227C174.848 105.987 157.353 122.2 147.241 145.88C137.118 169.586 135.604 197.931 142.979 225.693C158.196 282.976 206.964 319.901 251.691 307.997C273.343 302.236 290.838 286.023 300.95 262.344C311.073 238.637 312.587 210.293 305.212 182.531C291.922 132.499 253.03 97.9974 213.598 97.9974Z" fill="black"/>
<g opacity="0.3">
<path opacity="0.3" d="M251.775 308.304C238.55 311.822 224.992 311.108 212.051 306.879C221.879 308.664 231.923 308.391 241.776 305.771C286.744 293.809 310.808 237.456 295.522 179.914C284.732 139.291 257.214 108.928 226.142 98.801C261.181 105.131 293.588 137.513 305.515 182.446C320.801 239.987 296.743 296.339 251.775 308.302V308.304Z" fill="black"/>
</g>
<g opacity="0.6">
<path opacity="0.6" d="M226.692 310.102C189.902 305.911 155.13 272.687 142.671 225.774C127.385 168.232 151.45 111.886 196.416 99.9243C206.738 97.1768 217.263 97.007 227.546 99.0754C219.204 98.1134 210.754 98.651 202.437 100.867C157.471 112.836 133.406 169.18 148.692 226.723C160.475 271.067 192.185 303.184 226.692 310.102Z" fill="white"/>
</g>
<path d="M284.257 227.983C283.593 235.768 282.046 243.18 279.705 250.03C277.251 257.235 273.913 263.807 269.794 269.51C263.427 278.329 255.199 285.067 245.46 288.836C243.783 289.486 242.057 290.048 240.291 290.517C205.602 299.715 167.48 269.653 155.151 223.364C151.962 211.397 150.812 199.514 151.458 188.315C152.211 175.242 155.412 163.097 160.682 152.834C163.995 146.368 168.133 140.653 172.993 135.916C177.516 131.509 182.662 127.953 188.365 125.445C190.701 124.409 193.124 123.558 195.638 122.889C230.327 113.69 268.442 143.753 280.773 190.036C284.24 203.044 285.301 215.952 284.259 227.983H284.257Z" fill="#735CFF"/>
<path d="M230.817 296.82C197.793 296.82 164.791 266.567 153.211 222.968C149.876 210.419 148.548 197.768 149.262 185.367C150.057 171.513 153.471 158.342 159.138 147.276C162.717 140.27 167.157 134.153 172.334 129.092C177.275 124.263 182.824 120.473 188.826 117.826C191.32 116.718 193.947 115.791 196.633 115.075C233.75 105.203 274.673 137.535 287.852 187.147C291.481 200.8 292.736 214.498 291.58 227.859C290.876 236.142 289.236 244.103 286.707 251.525C284.069 259.294 280.496 266.334 276.09 272.451C269.126 282.126 260.1 289.314 249.985 293.239C248.182 293.941 246.315 294.549 244.436 295.047C239.934 296.244 235.373 296.821 230.815 296.821L230.817 296.82ZM210.26 113.931C205.754 113.931 201.247 114.501 196.795 115.685C194.142 116.393 191.546 117.308 189.082 118.403C183.147 121.02 177.661 124.77 172.775 129.545C167.648 134.556 163.249 140.62 159.7 147.565C154.075 158.552 150.684 171.636 149.893 185.404C149.184 197.738 150.506 210.323 153.823 222.807C166.913 272.086 207.488 304.219 244.276 294.436C246.133 293.944 247.976 293.342 249.757 292.649C259.756 288.768 268.685 281.656 275.578 272.081C279.948 266.014 283.492 259.029 286.11 251.321C288.622 243.949 290.251 236.037 290.952 227.806C292.101 214.516 290.853 200.892 287.243 187.31C275.738 144 242.997 113.934 210.262 113.934L210.26 113.931Z" fill="black"/>
<g opacity="0.3">
<path opacity="0.3" d="M254.57 131.964C239.65 122.362 222.852 118.69 206.75 122.976C169.739 132.824 150.4 180.96 163.56 230.482C169.663 253.472 181.699 272.72 196.542 285.759C177.164 273.309 160.949 250.864 153.517 222.888C140.363 173.365 159.702 125.23 196.713 115.381C216.547 110.108 237.43 116.901 254.57 131.964Z" fill="black"/>
</g>
<path d="M223.637 216.71C228.448 215.43 230.962 209.174 229.251 202.736C227.541 196.299 222.254 192.118 217.443 193.398C212.632 194.678 210.119 200.935 211.829 207.372C213.54 213.81 218.826 217.991 223.637 216.71Z" fill="black"/>
<path d="M251.843 226.647C251.378 226.647 250.909 226.52 250.488 226.251L217.646 205.339C217.047 204.957 216.636 204.34 216.513 203.639L205.89 143.002C205.648 141.624 206.569 140.313 207.946 140.071C209.323 139.835 210.633 140.751 210.875 142.128L221.303 201.666L253.205 221.979C254.384 222.729 254.731 224.296 253.981 225.474C253.499 226.232 252.68 226.647 251.845 226.647H251.843Z" fill="black"/>
<g opacity="0.3">
<path opacity="0.3" d="M258.084 223.848C257.618 223.848 257.149 223.721 256.728 223.452L223.887 202.539C223.287 202.157 222.876 201.54 222.753 200.839L212.13 140.202C211.889 138.824 212.809 137.513 214.186 137.271C215.557 137.029 216.873 137.95 217.114 139.328L227.544 198.866L259.444 219.18C260.623 219.929 260.97 221.496 260.22 222.674C259.738 223.432 258.919 223.847 258.082 223.847L258.084 223.848Z" fill="black"/>
</g>
<g opacity="0.25">
<path opacity="0.25" d="M275.834 272.264C269.041 281.701 260.262 288.911 249.871 292.943L149.576 185.384C150.379 171.396 153.795 158.401 159.417 147.419L275.832 272.263L275.834 272.264Z" fill="white"/>
</g>
<g opacity="0.25">
<path opacity="0.25" d="M291.266 227.831C290.558 236.161 288.906 244.091 286.408 251.422L172.555 129.318C177.38 124.603 182.87 120.798 188.955 118.114L291.266 227.831Z" fill="white"/>
</g>
<path d="M230.675 298.74C216.408 298.74 201.877 293.304 188.619 282.817C171.09 268.952 157.865 247.872 151.38 223.459C144.896 199.047 145.915 174.176 154.25 153.429C162.676 132.461 177.553 118.188 196.144 113.242C214.736 108.294 234.732 113.289 252.45 127.302C269.98 141.167 283.205 162.248 289.689 186.66C296.174 211.073 295.154 235.944 286.819 256.69C278.394 277.659 263.516 291.932 244.925 296.878C240.246 298.123 235.474 298.738 230.675 298.738V298.74ZM210.369 115.817C205.954 115.817 201.574 116.381 197.281 117.523C180.071 122.101 166.248 135.44 158.357 155.082C150.375 174.947 149.418 198.825 155.658 222.32C161.899 245.815 174.58 266.065 191.365 279.341C207.961 292.468 226.578 297.175 243.788 292.597C260.999 288.018 274.821 274.679 282.713 255.038C290.694 235.172 291.651 211.295 285.411 187.799C279.17 164.305 266.489 144.055 249.705 130.778C237.249 120.926 223.653 115.817 210.37 115.817H210.369Z" fill="black"/>
<path d="M234.623 313.072C193.911 313.072 153.858 277.736 140.229 226.426C132.691 198.051 134.253 169.049 144.626 144.761C155.09 120.258 173.253 103.466 195.77 97.474C242.013 85.1694 292.344 122.998 307.964 181.798C315.502 210.173 313.94 239.175 303.567 263.463C293.103 287.966 274.94 304.758 252.423 310.75C246.532 312.318 240.568 313.072 234.625 313.072H234.623ZM213.623 100.209C208.089 100.209 202.55 100.909 197.069 102.368C176.089 107.949 159.116 123.711 149.278 146.75C139.348 170.004 137.871 197.837 145.119 225.125C160.022 281.227 207.575 317.441 251.123 305.856C272.103 300.275 289.076 284.512 298.914 261.474C308.843 238.22 310.321 210.387 303.073 183.101C290.046 134.059 252.063 100.21 213.623 100.21V100.209Z" fill="black"/>
<path d="M315.994 274.637C315.503 274.637 315.009 274.496 314.573 274.199C313.418 273.412 313.118 271.837 313.904 270.681C330.773 245.873 335.462 210.807 326.449 176.88C316.993 141.278 294.295 112.607 265.733 100.183C264.452 99.6258 263.864 98.1346 264.421 96.8528C264.978 95.571 266.467 94.9824 267.749 95.5398C297.716 108.574 321.487 138.496 331.338 175.58C340.722 210.907 335.768 247.525 318.086 273.531C317.597 274.251 316.801 274.639 315.992 274.639L315.994 274.637Z" fill="black"/>
<path d="M349.318 163.999C351.579 172.507 349.892 180.339 345.551 181.495C341.209 182.649 335.851 176.692 333.592 168.184C331.334 159.684 333.028 151.85 337.369 150.695C341.711 149.54 347.062 155.499 349.319 163.999H349.318Z" fill="white"/>
<path d="M344.436 181.955C342.532 181.955 340.485 180.823 338.554 178.674C336.261 176.123 334.389 172.426 333.285 168.265C332.181 164.107 331.97 159.97 332.695 156.618C333.435 153.192 335.066 150.979 337.287 150.389C339.505 149.8 342.019 150.91 344.36 153.516C346.65 156.065 348.519 159.761 349.623 163.92C350.728 168.082 350.941 172.221 350.218 175.572C349.48 178.998 347.852 181.21 345.631 181.802C345.241 181.905 344.842 181.956 344.436 181.956V181.955ZM338.479 150.866C338.128 150.866 337.783 150.91 337.448 150.999C335.469 151.525 334 153.568 333.313 156.75C332.609 160.007 332.817 164.038 333.896 168.101C334.976 172.168 336.797 175.772 339.025 178.251C341.2 180.671 343.49 181.717 345.468 181.188C347.447 180.661 348.915 178.62 349.6 175.438C350.302 172.181 350.092 168.149 349.012 164.081C347.932 160.017 346.113 156.415 343.889 153.937C342.084 151.927 340.199 150.867 338.48 150.867L338.479 150.866Z" fill="black"/>
<g opacity="0.3">
<path opacity="0.3" d="M349.316 163.999C351.577 172.507 349.89 180.339 345.549 181.495C341.207 182.649 335.849 176.692 333.59 168.184C331.332 159.684 333.026 151.85 337.367 150.695C341.709 149.54 347.06 155.499 349.317 163.999H349.316Z" fill="black"/>
</g>
<path d="M345.55 181.495L326.459 186.574C322.117 187.729 316.759 181.771 314.5 173.264C312.243 164.763 313.936 156.93 318.278 155.774L337.369 150.695C333.028 151.849 331.334 159.684 333.592 168.184C335.853 176.692 341.209 182.651 345.55 181.495Z" fill="white"/>
<path d="M325.344 187.035C323.44 187.035 321.393 185.903 319.462 183.754C317.169 181.203 315.297 177.507 314.193 173.346C313.089 169.187 312.878 165.051 313.604 161.699C314.344 158.272 315.974 156.06 318.195 155.47L337.287 150.39L337.45 151.003C335.47 151.529 334.002 153.572 333.315 156.754C332.611 160.011 332.818 164.042 333.897 168.105C334.977 172.173 336.798 175.776 339.026 178.255C341.199 180.673 343.485 181.718 345.462 181.194H345.469L345.632 181.803L326.54 186.884C326.15 186.987 325.751 187.038 325.347 187.038L325.344 187.035ZM335.162 151.607L318.356 156.079C316.377 156.606 314.909 158.649 314.221 161.831C313.517 165.087 313.725 169.118 314.804 173.181C315.884 177.249 317.705 180.853 319.933 183.331C322.108 185.752 324.397 186.795 326.376 186.268L343.181 181.796C341.65 181.416 340.066 180.357 338.554 178.674C336.261 176.123 334.389 172.426 333.285 168.265C332.181 164.107 331.97 159.97 332.695 156.618C333.173 154.406 334.023 152.699 335.162 151.609V151.607Z" fill="black"/>
<g opacity="0.3">
<path opacity="0.3" d="M345.548 181.492L326.455 186.574C322.407 187.651 317.474 182.536 314.994 174.934C316.702 176.288 318.492 176.871 320.13 176.434L335.068 172.458C337.725 178.592 341.974 182.44 345.548 181.491V181.492Z" fill="black"/>
</g>
<g opacity="0.6">
<path opacity="0.6" d="M337.364 150.693C334.759 151.389 333.108 154.49 332.696 158.7L317.113 162.839C315.546 163.257 314.318 164.554 313.501 166.434C313.387 160.908 315.145 156.604 318.277 155.775L337.364 150.693Z" fill="white"/>
</g>
<path d="M344.42 184.174C341.887 184.174 339.274 182.791 336.906 180.156C334.384 177.349 332.337 173.329 331.144 168.835C329.951 164.345 329.733 159.84 330.531 156.15C331.455 151.87 333.652 149.063 336.717 148.248C339.78 147.433 343.08 148.777 346.005 152.034C348.524 154.84 350.568 158.859 351.761 163.35C352.955 167.845 353.175 172.351 352.381 176.038C351.459 180.319 349.263 183.126 346.199 183.941C345.613 184.097 345.02 184.174 344.422 184.174H344.42ZM338.469 153.084C338.31 153.084 338.159 153.103 338.015 153.141C336.912 153.435 335.962 154.959 335.474 157.22C334.852 160.097 335.056 163.856 336.033 167.534C337.01 171.215 338.699 174.581 340.668 176.771C342.213 178.49 343.795 179.344 344.897 179.049C345.999 178.756 346.946 177.232 347.433 174.973C348.052 172.095 347.847 168.333 346.869 164.653C345.892 160.975 344.204 157.61 342.239 155.421C340.896 153.926 339.526 153.087 338.467 153.087L338.469 153.084Z" fill="black"/>
<path d="M325.33 189.254C322.795 189.254 320.183 187.87 317.815 185.236C315.293 182.429 313.246 178.408 312.053 173.914C310.86 169.424 310.642 164.919 311.438 161.229C312.362 156.949 314.559 154.142 317.624 153.328L336.709 148.25H336.716C338.063 147.888 339.451 148.693 339.811 150.044C340.17 151.396 339.365 152.783 338.015 153.141H338.012C336.911 153.436 335.962 154.962 335.475 157.22C334.853 160.097 335.056 163.856 336.033 167.534C337.01 171.215 338.699 174.581 340.669 176.771C342.214 178.49 343.796 179.344 344.897 179.049C346.244 178.689 347.632 179.493 347.992 180.845C348.351 182.197 347.548 183.583 346.196 183.942C346.196 183.942 346.195 183.942 346.193 183.942L327.104 189.022C326.519 189.177 325.927 189.255 325.329 189.255L325.33 189.254ZM330.803 155.059L318.925 158.22C317.822 158.514 316.872 160.038 316.384 162.299C315.762 165.177 315.966 168.936 316.943 172.613C317.92 176.294 319.609 179.66 321.578 181.85C323.123 183.57 324.704 184.422 325.807 184.128L337.684 180.967C337.423 180.711 337.164 180.441 336.907 180.156C334.385 177.349 332.338 173.329 331.145 168.835C329.951 164.345 329.734 159.84 330.531 156.15C330.612 155.775 330.702 155.413 330.803 155.061V155.059Z" fill="black"/>
<path d="M325.33 189.254C322.795 189.254 320.183 187.87 317.815 185.236C315.293 182.429 313.246 178.408 312.053 173.914C310.86 169.424 310.642 164.919 311.438 161.229C312.362 156.949 314.559 154.142 317.624 153.328L336.709 148.25H336.716C338.063 147.888 339.451 148.693 339.811 150.044C340.17 151.396 339.365 152.783 338.015 153.141H338.012C336.911 153.436 335.962 154.962 335.475 157.22C334.853 160.097 335.056 163.856 336.033 167.534C337.01 171.215 338.699 174.581 340.669 176.771C342.214 178.49 343.796 179.344 344.897 179.049C346.244 178.689 347.632 179.493 347.992 180.845C348.351 182.197 347.548 183.583 346.196 183.942C346.196 183.942 346.195 183.942 346.193 183.942L327.104 189.022C326.519 189.177 325.927 189.255 325.329 189.255L325.33 189.254ZM330.803 155.059L318.925 158.22C317.822 158.514 316.872 160.038 316.384 162.299C315.762 165.177 315.966 168.936 316.943 172.613C317.92 176.294 319.609 179.66 321.578 181.85C323.123 183.57 324.704 184.422 325.807 184.128L337.684 180.967C337.423 180.711 337.164 180.441 336.907 180.156C334.385 177.349 332.338 173.329 331.145 168.835C329.951 164.345 329.734 159.84 330.531 156.15C330.612 155.775 330.702 155.413 330.803 155.061V155.059Z" fill="black"/>
<path d="M247.572 341.644C245.932 341.644 244.291 341.335 242.746 340.717C224.691 333.486 210.46 321.278 200.444 304.433C199.73 303.232 200.123 301.678 201.325 300.962C202.525 300.248 204.077 300.641 204.792 301.844C214.226 317.709 227.628 329.208 244.626 336.017C246.652 336.828 248.95 336.764 250.929 335.842L253.532 334.629L248.198 329.434C246.858 328.121 246.28 326.239 246.654 324.399C247.029 322.559 248.296 321.053 250.042 320.369L296.19 302.311C299.383 301.061 302.983 301.725 305.584 304.044C312.661 310.35 320.737 313.223 331.774 313.36C331.83 313.36 331.885 313.36 331.942 313.36C336.494 313.36 340.695 311.056 343.205 307.172L345.737 303.253C346.441 302.165 346.142 300.703 345.074 299.996C329.888 289.95 321.013 273.294 321.91 256.532C321.985 255.135 323.177 254.063 324.572 254.139C325.968 254.214 327.038 255.407 326.963 256.803C326.16 271.781 334.17 286.714 347.863 295.773C351.236 298.004 352.189 302.594 349.985 306.002L347.453 309.921C343.961 315.324 338.062 318.502 331.71 318.423C319.367 318.268 310.272 314.999 302.219 307.823C301.047 306.779 299.444 306.474 298.032 307.025L251.884 325.083C251.735 325.143 251.643 325.25 251.611 325.407C251.58 325.564 251.621 325.7 251.735 325.812L257.066 331.031C258.249 332.19 258.789 333.858 258.511 335.491C258.232 337.123 257.169 338.517 255.668 339.216L253.067 340.428C251.335 341.236 249.453 341.641 247.572 341.641V341.644Z" fill="black"/>
<path d="M154.02 134.805C152.638 134.805 151.508 133.693 151.491 132.305C151.182 107.781 156.504 87.4797 167.763 70.2403C168.07 69.7706 168.523 69.4155 169.053 69.233L182.269 64.6589C183.073 64.3802 183.961 64.5245 184.635 65.0423C185.309 65.5601 185.678 66.3821 185.619 67.2296L184.574 82.0016C184.518 82.7995 184.84 83.5494 185.458 84.0573C186.076 84.5652 186.871 84.7364 187.645 84.527L244.35 69.1254C245.662 68.7689 246.732 67.8507 247.285 66.6071L257.587 43.4057C257.896 42.7096 258.501 42.189 259.236 41.9909L271.217 38.7425C272.208 38.4751 273.264 38.8302 273.888 39.648L280.989 48.9348C281.458 49.5488 281.622 50.3425 281.433 51.0923C278.15 64.1227 275.061 89.1492 291.254 110.356C292.102 111.466 291.89 113.055 290.78 113.904C289.67 114.754 288.083 114.542 287.233 113.43C274.49 96.7438 270.602 74.6304 276.233 51.0485L270.901 44.0749L261.72 46.5636L251.908 68.6656C250.735 71.3071 248.463 73.2567 245.675 74.015L188.969 89.4166C186.63 90.0518 184.116 89.5114 182.245 87.972C180.373 86.4313 179.356 84.0672 179.527 81.6465L180.302 70.7001L171.532 73.7363C161.159 89.9528 156.26 109.102 156.551 132.244C156.568 133.642 155.451 134.789 154.053 134.808H154.02V134.805Z" fill="black"/>
<path d="M182.45 78.7221C181.367 78.7221 180.365 78.0204 180.031 76.9281C179.622 75.5911 180.376 74.1763 181.712 73.7675L255.004 51.3711C256.339 50.9608 257.755 51.7149 258.162 53.0533C258.571 54.3903 257.817 55.8051 256.482 56.214L183.189 78.6103C182.943 78.6853 182.694 78.7221 182.45 78.7221Z" fill="black"/>
<path d="M254.16 334.261C253.143 334.261 252.185 333.643 251.798 332.637C251.297 331.331 251.947 329.867 253.252 329.366L308.912 307.959C310.215 307.458 311.68 308.108 312.18 309.413C312.681 310.719 312.03 312.183 310.726 312.684L255.066 334.091C254.768 334.206 254.461 334.261 254.16 334.261Z" fill="black"/>
<path d="M307.07 354C286.124 354 266.029 349.33 250.714 340.319C249.509 339.61 249.108 338.058 249.815 336.853C250.523 335.648 252.074 335.246 253.278 335.955C277.097 349.97 313.207 352.932 345.273 343.494C370.265 336.141 404.784 317.998 427.312 273.318C437.413 253.286 443.172 231.279 444.426 207.906C451.8 70.5558 391.381 26.9289 354.71 13.1473C295.895 -8.9576 221.565 15.4067 177.97 71.075C177.107 72.1758 175.517 72.3682 174.419 71.5066C173.319 70.6435 173.127 69.0519 173.987 67.9511C218.91 10.5907 295.662 -14.4541 356.491 8.40771C386.327 19.62 410.543 41.8551 426.521 72.7091C444.698 107.81 452.423 153.388 449.48 208.178C448.188 232.254 442.249 254.937 431.83 275.599C408.485 321.896 372.651 340.715 346.701 348.351C333.81 352.144 320.271 353.999 307.07 353.999V354Z" fill="black"/>
<path d="M337.252 292.65C336.424 292.65 335.612 292.243 335.127 291.497C334.367 290.323 334.7 288.755 335.872 287.994C394.768 249.759 397.452 167.006 370.076 108.555C352.679 71.4089 319.114 36.3741 277.09 49.437C275.755 49.8502 274.339 49.106 273.923 47.7704C273.509 46.4348 274.254 45.0158 275.588 44.6012C295.003 38.5657 314.872 41.9159 333.048 54.2912C349.571 65.5432 363.959 83.5621 374.658 106.404C389.209 137.473 395 173.887 390.545 206.308C385.391 243.821 367.437 273.536 338.626 292.24C338.201 292.516 337.724 292.647 337.252 292.647V292.65Z" fill="black"/>
<path d="M359.731 313.831C354.602 313.831 349.474 312.861 344.418 310.91C343.114 310.408 342.465 308.942 342.967 307.637C343.47 306.333 344.935 305.682 346.238 306.187C359.077 311.143 371.972 309.062 384.563 300.003C398.967 289.64 411.982 270.633 421.207 246.481C430.405 222.405 434.883 195.784 433.82 171.523C432.5 132.691 421.913 97.1004 403.204 68.5737C386.663 43.3505 364.411 25.4816 342.157 19.5436C316.058 12.5786 292.442 22.5473 277.362 46.8861C276.626 48.0746 275.066 48.441 273.879 47.7039C272.691 46.9668 272.325 45.4063 273.062 44.2178C289.398 17.8501 315.057 7.07355 343.459 14.6512C367.244 20.9966 389.964 39.1599 407.432 65.795C426.65 95.0984 437.523 131.59 438.874 171.325C441.157 223.414 418.598 281.754 387.514 304.115C378.54 310.57 369.132 313.833 359.726 313.833L359.731 313.831Z" fill="black"/>
<path d="M439.838 116.19C439.781 116.165 439.629 116.088 439.408 115.975C437.391 114.957 429.245 110.728 426.405 109.246C425.791 108.93 425.425 108.74 425.425 108.74L382.722 133.666L385.132 144.09C384.918 144.085 384.708 144.065 384.493 144.039C377.719 143.134 370.383 131.886 370.997 122.759L376.949 118.993L418.133 92.921L421.056 91.0733L432.578 93.4473L432.919 93.5167C440.129 98.0936 442.134 105.828 439.838 116.189V116.19Z" fill="white"/>
<path d="M385.533 144.42L385.121 144.407C384.897 144.4 384.679 144.38 384.456 144.353C377.401 143.411 370.066 131.896 370.681 122.738L370.692 122.578L376.779 118.726L420.995 90.738L433.09 93.2493C440.162 97.737 442.537 105.479 440.149 116.257L440.064 116.636L439.711 116.478C439.651 116.451 439.494 116.373 439.265 116.254C437.259 115.241 429.148 111.032 426.261 109.525L425.437 109.099L383.086 133.82L385.536 144.419L385.533 144.42ZM371.303 122.94C370.799 131.796 377.8 142.825 384.536 143.725C384.601 143.732 384.665 143.739 384.728 143.746L382.362 133.509L425.417 108.378L426.551 108.965C429.437 110.47 437.546 114.679 439.551 115.691C439.574 115.702 439.595 115.714 439.616 115.723C441.826 105.325 439.593 98.1544 432.799 93.8152L421.117 91.4086L371.303 122.94Z" fill="black"/>
<g opacity="0.6">
<path opacity="0.6" d="M383.774 138.217L385.134 144.092C384.919 144.086 384.71 144.066 384.495 144.041C377.721 143.135 370.385 131.888 370.999 122.761L375.401 119.976C375.179 126.654 379.05 134.325 383.774 138.217Z" fill="white"/>
</g>
<path d="M443.261 236.186L442.717 235.4L431.383 219.12L375.127 246.61L375.122 246.615C374.717 234.843 377.208 223.032 385.077 216.334L385.709 215.999L435.647 189.333L436.133 189.801L446.809 199.941L447.068 200.187C453.367 213.423 453.278 226.037 443.261 236.183V236.186Z" fill="white"/>
<path d="M374.836 247.323L374.805 246.627C374.332 232.865 377.907 222.022 384.871 216.094L385.561 215.72L435.701 188.947L436.354 189.575L447.356 200.053C454.267 214.576 452.966 226.808 443.488 236.408L443.221 236.678L431.281 219.523L375.311 246.873L374.838 247.323H374.836ZM435.594 189.722L385.224 216.616C378.549 222.308 375.056 232.784 375.422 246.115L431.488 218.718L443.302 235.69C452.32 226.353 453.501 214.475 446.808 200.38L435.592 189.723L435.594 189.722Z" fill="black"/>
<g opacity="0.6">
<path opacity="0.6" d="M436.54 190.189L393.09 213.387L392.458 213.723C384.806 220.236 382.237 231.579 382.478 243.022L375.129 246.611L375.124 246.617C374.719 234.844 377.21 223.033 385.079 216.336L385.711 216.001L435.649 189.334L436.135 189.803L436.54 190.189Z" fill="white"/>
</g>
<path d="M385.133 146.624C385.104 146.624 385.074 146.624 385.044 146.624C381.861 146.512 378.462 144.629 375.479 141.321C370.807 136.142 368.057 128.789 368.473 122.591C368.527 121.784 368.962 121.053 369.645 120.621L419.702 88.9384C420.256 88.5875 420.923 88.4672 421.564 88.5974L433.433 91.0422C433.733 91.1044 434.018 91.219 434.277 91.3846C442.222 96.4241 444.924 104.954 442.307 116.739C442.141 117.483 441.649 118.114 440.968 118.454C440.287 118.795 439.488 118.809 438.794 118.495C438.166 118.211 429.601 113.767 425.495 111.633L385.607 134.911L387.599 143.523C387.775 144.29 387.587 145.096 387.087 145.705C386.605 146.289 385.888 146.626 385.135 146.626L385.133 146.624ZM373.494 124.174C373.595 128.757 375.809 134.13 379.235 137.927C380.016 138.792 380.819 139.52 381.612 140.092L380.257 134.233C380.007 133.152 380.491 132.035 381.448 131.476L424.151 106.556C424.9 106.117 425.822 106.094 426.591 106.496C430.132 108.337 434.906 110.813 437.953 112.384C438.976 104.716 436.997 99.3018 431.944 95.9049L421.545 93.7628L373.496 124.175L373.494 124.174Z" fill="black"/>
<path d="M375.61 249.636C375.158 249.636 374.707 249.514 374.307 249.275C373.572 248.834 373.111 248.049 373.081 247.191C372.729 236.966 374.324 223.065 383.925 214.894C384.064 214.777 384.214 214.675 384.374 214.589L434.942 187.59C435.904 187.078 437.084 187.238 437.874 187.987L449.297 198.84C449.522 199.054 449.706 199.309 449.84 199.587C457.091 214.826 455.606 228.267 445.548 238.456C445.019 238.991 444.281 239.268 443.532 239.199C442.783 239.135 442.101 238.741 441.672 238.124L431.031 222.834L376.72 249.379C376.368 249.551 375.989 249.636 375.61 249.636ZM387.004 218.923C381.5 223.745 378.401 232.217 378.119 243.06L430.759 217.333C431.88 216.784 433.232 217.137 433.946 218.161L443.996 232.602C450.557 224.397 451.056 214.181 445.47 202.185L435.714 192.917L387.003 218.923H387.004Z" fill="black"/>
<path d="M347.321 48.9857L355.943 41.1996C356.806 40.4205 358.137 40.489 358.916 41.3524L360.97 43.6308C361.748 44.4942 361.68 45.827 360.817 46.6061L352.195 54.3922C351.332 55.1713 350.001 55.1028 349.222 54.2394L347.168 51.961C346.389 51.0976 346.458 49.7648 347.321 48.9857Z" fill="black"/>
<path d="M380.617 69.8908L371.606 77.2225C370.704 77.9564 370.567 79.2832 371.3 80.186L373.235 82.5671C373.968 83.4699 375.294 83.6068 376.196 82.8729L385.207 75.5412C386.109 74.8072 386.246 73.4804 385.513 72.5776L383.578 70.1965C382.845 69.2937 381.519 69.1568 380.617 69.8908Z" fill="black"/>
<path d="M401.307 143.053L411.979 138.469C413.047 138.01 414.285 138.505 414.744 139.574L415.953 142.394C416.412 143.463 415.917 144.702 414.849 145.161L404.177 149.745C403.109 150.204 401.871 149.709 401.413 148.64L400.203 145.82C399.745 144.751 400.24 143.512 401.307 143.053Z" fill="black"/>
<path d="M406.932 171.261L418.094 168.056C419.211 167.735 420.378 168.382 420.698 169.5L421.544 172.449C421.865 173.567 421.218 174.734 420.101 175.055L408.938 178.261C407.821 178.581 406.655 177.935 406.334 176.817L405.489 173.867C405.168 172.749 405.815 171.582 406.932 171.261Z" fill="black"/>
<path d="M240.487 297.823C239.471 297.823 238.555 297.117 238.327 296.083L235.466 283.027C235.204 281.831 235.959 280.65 237.154 280.388C238.348 280.126 239.527 280.882 239.79 282.078L242.652 295.133C242.913 296.329 242.158 297.51 240.964 297.772C240.804 297.807 240.644 297.824 240.487 297.824V297.823Z" fill="black"/>
<path d="M203.042 126.94C202.024 126.94 201.108 126.234 200.882 125.2L198.636 114.948C198.374 113.753 199.129 112.571 200.324 112.309C201.518 112.046 202.699 112.805 202.96 113.999L205.207 124.25C205.468 125.446 204.713 126.627 203.519 126.889C203.359 126.924 203.199 126.941 203.042 126.941V126.94Z" fill="black"/>
<path d="M275.214 192.728C274.235 192.728 273.34 192.073 273.077 191.082C272.763 189.899 273.465 188.686 274.647 188.371L286.982 185.089C288.164 184.77 289.375 185.478 289.69 186.66C290.004 187.843 289.302 189.056 288.12 189.371L275.785 192.653C275.595 192.704 275.404 192.728 275.216 192.728H275.214Z" fill="black"/>
<path d="M153.519 225.106C152.539 225.106 151.644 224.451 151.381 223.459C151.068 222.277 151.77 221.064 152.952 220.749L164.776 217.602C165.958 217.284 167.171 217.991 167.485 219.174C167.799 220.357 167.096 221.569 165.914 221.885L154.09 225.031C153.899 225.082 153.708 225.106 153.52 225.106H153.519Z" fill="black"/>
<g opacity="0.3">
<path opacity="0.3" d="M285.871 107.005C277.902 103.27 268.827 98.8024 268.827 98.8024C256.253 79.7817 271.882 41.1845 271.882 41.1845L278.978 50.4698C277.245 57.3444 276.258 64.5217 276.258 71.7188C276.258 83.8521 279.066 96.0619 285.871 107.005Z" fill="black"/>
</g>
<g opacity="0.3">
<path opacity="0.3" d="M432.441 92.2334L432.125 92.2207L420.159 91.6449L376.419 117.584L376.406 117.578C357.533 69.2273 319.599 34.0666 277.383 46.0797L276.34 43.7821C301.935 2.82207 362.46 5.26543 400.653 60.4456C408.768 62.4263 415.022 62.6612 411.961 54.1611C411.923 54.0408 411.872 53.9205 411.829 53.7932L412.214 54.5148L431.366 90.2258L432.441 92.232V92.2334Z" fill="black"/>
</g>
<g opacity="0.3">
<path opacity="0.3" d="M443.262 236.186L442.717 235.4C439.795 248.749 435.26 261.719 429.082 273.972C398.725 334.179 342.993 353.63 298.089 350.749C296.16 350.002 295.104 349.591 295.104 349.591C325.481 345.774 348.798 336.608 348.647 309.676C408.73 324.931 431.384 219.12 431.384 219.12L430.657 212.557L431.504 196.942L435.932 192.093L436.134 189.821V189.803C440.542 161.028 429.62 120.305 426.406 109.246C425.869 107.399 425.547 106.379 425.547 106.379L422.226 95.6191H415.743L418.133 92.9225L420.752 89.9726L432.212 92.4669C432.338 92.7895 432.458 93.1191 432.58 93.4474L432.921 93.5167C440.13 98.0936 442.135 105.828 439.839 116.189C439.783 116.163 439.63 116.087 439.409 115.974C445.228 139.772 447.966 167.648 446.809 199.941L447.067 200.187C453.367 213.423 453.278 226.037 443.26 236.183L443.262 236.186Z" fill="black"/>
</g>
<path d="M413.117 254.269V210.083L496.854 90.6143H555.497V207.9H576.5V254.269H555.497V287H501.491V254.269H413.117ZM505.582 150.894L467.942 207.9H505.582V150.894Z" fill="black"/>
</svg>
